2014001_C4_04_grf
version=1
nRows=12
nColumns=19
inDegrees=no
endheader
time	ground_force_1_vx	ground_force_1_vy	ground_force_1_vz	ground_force_1_px	ground_force_1_py	ground_force_1_pz	ground_force_1_mx	ground_force_1_my	ground_force_1_mz	ground_force_2_vx	ground_force_2_vy	ground_force_2_vz	ground_force_2_px	ground_force_2_py	ground_force_2_pz	ground_force_2_mx	ground_force_2_my	ground_force_2_mz
      0.38700000	     -3.57833575	    471.40561044	    -25.40857904	      0.23770595	     -0.00200000	     -0.22333770	      0.00000000	      1.35022982	      0.00000000	      0.00000000	      0.00000000	      0.00000000	      0.00000000	      0.00000000	      0.00000000	      0.00000000	      0.00000000	      0.00000000
      0.38800000	     -3.10230488	    473.18129987	    -25.19241720	      0.23786459	     -0.00200000	     -0.22349307	     -0.00000000	      1.40487572	     -0.00000000	      0.00000000	      0.00000000	      0.00000000	      0.00000000	      0.00000000	      0.00000000	      0.00000000	      0.00000000	      0.00000000
      0.38900000	     -2.61497404	    474.99616630	    -24.97860603	      0.23802113	     -0.00200000	     -0.22364859	      0.00000000	      1.45997603	      0.00000000	      0.00000000	      0.00000000	      0.00000000	      0.00000000	      0.00000000	      0.00000000	      0.00000000	      0.00000000	      0.00000000
      0.39000000	     -2.11845338	    476.84238106	    -24.76722933	      0.23817598	     -0.00200000	     -0.22380406	     -0.00000000	      1.51537789	      0.00000000	      0.00000000	      0.00000000	      0.00000000	      0.00000000	      0.00000000	      0.00000000	      0.00000000	      0.00000000	      0.00000000
      0.39100000	     -1.61026133	    478.72782312	    -24.55955930	      0.23832869	     -0.00200000	     -0.22395925	      0.00000000	      1.57108193	      0.00000000	      0.00000000	      0.00000000	      0.00000000	      0.00000000	      0.00000000	      0.00000000	      0.00000000	      0.00000000	      0.00000000
      0.39200000	     -1.09258830	    480.64468056	    -24.35536869	      0.23847965	     -0.00200000	     -0.22411406	      0.00000000	      1.62697109	      0.00000000	      0.00000000	      0.00000000	      0.00000000	      0.00000000	      0.00000000	      0.00000000	      0.00000000	      0.00000000	      0.00000000
      0.39300000	     -0.56288845	    482.60088265	    -24.15614855	      0.23862842	     -0.00200000	     -0.22426822	      0.00000000	      1.68302453	      0.00000000	      0.00000000	      0.00000000	      0.00000000	      0.00000000	      0.00000000	      0.00000000	      0.00000000	      0.00000000	      0.00000000
      0.39400000	     -0.02343379	    484.58853364	    -23.96138385	      0.23877543	     -0.00200000	     -0.22442170	      0.00000000	      1.73915779	      0.00000000	      0.00000000	      0.00000000	      0.00000000	      0.00000000	      0.00000000	      0.00000000	      0.00000000	      0.00000000	      0.00000000
      0.39500000	      0.52836799	    486.61561310	    -23.77276868	      0.23892024	     -0.00200000	     -0.22457417	      0.00000000	      1.79532752	      0.00000000	      0.00000000	      0.00000000	      0.00000000	      0.00000000	      0.00000000	      0.00000000	      0.00000000	      0.00000000	      0.00000000
      0.39600000	      1.09016278	    488.67424205	    -23.58951792	      0.23906328	     -0.00200000	     -0.22472570	      0.00000000	      1.85147634	      0.00000000	      0.00000000	      0.00000000	      0.00000000	      0.00000000	      0.00000000	      0.00000000	      0.00000000	      0.00000000	      0.00000000
      0.39700000	      1.66458572	    490.77233300	    -23.41351379	      0.23920411	     -0.00200000	     -0.22487589	      0.00000000	      1.90753849	      0.00000000	      0.00000000	      0.00000000	      0.00000000	      0.00000000	      0.00000000	      0.00000000	      0.00000000	      0.00000000	      0.00000000
      0.39800000	      2.24921410	    492.90200695	    -23.24371412	      0.23934319	     -0.00200000	     -0.22502489	      0.00000000	      1.96348476	      0.00000000	      0.00000000	      0.00000000	      0.00000000	      0.00000000	      0.00000000	      0.00000000	      0.00000000	      0.00000000	      0.00000000
